<?xml version="1.0" encoding="UTF-8" standalone="no"?>
<!-- Uploaded to: SVG Repo, www.svgrepo.com, Generator: SVG Repo Mixer Tools -->

<svg
   fill="#000000"
   height="800"
   width="800"
   version="1.1"
   id="Layer_1"
   viewBox="0 0 511.999 511.999"
   xml:space="preserve"
   sodipodi:docname="robonerd-robot-logo-plain.svg"
   inkscape:version="1.4.2 (1:1.4.2+202505120737+ebf0e940d0)"
   xmlns:inkscape="http://www.inkscape.org/namespaces/inkscape"
   xmlns:sodipodi="http://sodipodi.sourceforge.net/DTD/sodipodi-0.dtd"
   xmlns="http://www.w3.org/2000/svg"
   xmlns:svg="http://www.w3.org/2000/svg"><sodipodi:namedview
   id="namedview1"
   pagecolor="#a3a3a3"
   bordercolor="#000000"
   borderopacity="0.25"
   inkscape:showpageshadow="2"
   inkscape:pageopacity="0.0"
   inkscape:pagecheckerboard="0"
   inkscape:deskcolor="#d1d1d1"
   inkscape:zoom="1.22875"
   inkscape:cx="400"
   inkscape:cy="400"
   inkscape:window-width="3006"
   inkscape:window-height="1651"
   inkscape:window-x="66"
   inkscape:window-y="40"
   inkscape:window-maximized="1"
   inkscape:current-layer="Layer_1" /><defs
   id="defs12" />
<g
   id="g2">
	<g
   id="g1"
   style="fill:#f9f9f9">
		<path
   d="m 424.464,226.038 h -31.289 c -4.637,0 -8.394,3.758 -8.394,8.394 v 17.485 H 370.51 v -17.485 c 0,-4.636 -3.757,-8.394 -8.394,-8.394 h -34.743 v -17.351 h 34.743 c 4.637,0 8.394,-3.758 8.394,-8.394 V 66.121 c 0,-20.285 -16.502,-36.787 -36.787,-36.787 H 264.394 V 8.394 C 264.394,3.758 260.637,0 256,0 c -4.637,0 -8.394,3.758 -8.394,8.394 v 20.939 h -69.33 c -20.285,0 -36.787,16.503 -36.787,36.787 v 134.173 c 0,4.636 3.757,8.394 8.394,8.394 h 34.744 v 17.351 h -34.744 c -4.637,0 -8.394,3.758 -8.394,8.394 v 17.485 h -14.271 v -17.485 c 0,-4.636 -3.757,-8.394 -8.394,-8.394 h -31.29 c -4.637,0 -8.394,3.758 -8.394,8.394 v 169.096 c 0,4.636 3.757,8.394 8.394,8.394 h 31.289 c 4.637,0 8.394,-3.758 8.394,-8.394 V 303.215 h 14.271 v 68.203 c 0,4.636 3.757,8.394 8.394,8.394 h 14.9 v 75.713 h -10.586 c -4.637,0 -8.394,3.758 -8.394,8.394 v 39.686 c 0,4.636 3.757,8.394 8.394,8.394 h 70.744 c 4.637,0 8.394,-3.758 8.394,-8.394 v -39.686 c 0,-4.636 -3.757,-8.394 -8.394,-8.394 h -10.585 v -75.713 h 83.289 v 75.713 h -10.586 c -4.637,0 -8.394,3.758 -8.394,8.394 v 39.686 c 0,4.636 3.757,8.394 8.394,8.394 h 70.744 c 4.637,0 8.394,-3.758 8.394,-8.394 v -39.686 c 0,-4.636 -3.757,-8.394 -8.394,-8.394 h -10.585 v -75.713 h 14.9 c 4.637,0 8.394,-3.758 8.394,-8.394 v -68.203 h 14.271 v 100.312 c 0,4.636 3.757,8.394 8.394,8.394 h 31.289 c 4.637,0 8.394,-3.758 8.394,-8.394 V 234.431 c -0.002,-4.635 -3.759,-8.393 -8.395,-8.393 z M 110.43,395.134 H 95.929 V 242.826 h 14.501 z m 31.059,-108.706 h -14.271 v -17.723 h 14.271 z M 158.276,191.9 V 66.121 c 0,-11.028 8.972,-20 20,-20 h 155.447 c 11.028,0 20,8.972 20,20 V 191.9 Z m 152.31,16.786 v 17.351 H 201.414 v -17.351 z m -94.039,263.628 v 22.898 H 162.59 v -22.898 z m -34.976,-16.788 v -75.713 h 15.998 v 75.713 h -15.998 z m 167.838,16.788 v 22.898 h -53.957 v -22.898 z m -34.976,-16.788 v -75.713 h 15.998 v 75.713 0 h -15.998 z m 39.29,-92.502 H 158.276 V 242.826 h 195.446 v 120.198 z m 31.058,-76.596 H 370.51 v -17.723 h 14.271 z M 416.07,395.134 H 401.569 V 242.826 h 14.501 z"
   id="path1"
   style="fill:#f9f9f9" />
	</g>
</g>
<g
   id="g4"
   style="fill:#f9f9f9">
	<g
   id="g3"
   style="fill:#f9f9f9">
		<path
   d="m 204.236,84.744 c -20.803,0 -37.727,16.924 -37.727,37.726 0,20.802 16.924,37.726 37.727,37.726 20.802,0.001 37.726,-16.923 37.726,-37.726 0.001,-20.802 -16.923,-37.726 -37.726,-37.726 z m 0,58.665 c -11.545,0 -20.94,-9.392 -20.94,-20.939 0,-11.545 9.394,-20.939 20.94,-20.939 11.545,0 20.939,9.393 20.939,20.939 0,11.546 -9.393,20.939 -20.939,20.939 z"
   id="path2"
   style="fill:#f9f9f9" />
	</g>
</g>
<g
   id="g6"
   style="fill:#f9f9f9">
	<g
   id="g5"
   style="fill:#f9f9f9">
		<path
   d="m 307.765,84.744 c -20.803,0 -37.727,16.924 -37.727,37.726 0,20.802 16.924,37.727 37.727,37.727 20.802,0 37.726,-16.924 37.726,-37.726 0,-20.802 -16.924,-37.727 -37.726,-37.727 z m 0,58.665 c -11.545,0 -20.94,-9.393 -20.94,-20.939 0,-11.545 9.393,-20.939 20.94,-20.939 11.545,0 20.939,9.393 20.939,20.939 -0.001,11.546 -9.394,20.939 -20.939,20.939 z"
   id="path4"
   style="fill:#f9f9f9" />
	</g>
</g>
<g
   id="g8"
   style="fill:#f9f9f9">
	<g
   id="g7"
   style="fill:#f9f9f9">
		<path
   d="m 256.001,270.9 c -30.317,0 -54.982,24.664 -54.982,54.982 0,4.636 3.757,8.394 8.394,8.394 h 93.176 c 4.637,0 8.394,-3.758 8.394,-8.394 C 310.982,295.565 286.318,270.9 256.001,270.9 Z m -37.266,46.588 c 3.835,-17.036 19.089,-29.8 37.265,-29.8 18.177,0 33.43,12.764 37.265,29.8 z"
   id="path6"
   style="fill:#f9f9f9" />
	</g>
</g>
<g
   id="g10"
   style="fill:#f9f9f9">
	<g
   id="g9"
   style="fill:#f9f9f9">
		<circle
   cx="326.74399"
   cy="267.215"
   r="8.3940001"
   id="circle8"
   style="fill:#f9f9f9" />
	</g>
</g>
<g
   id="g12"
   style="fill:#f9f9f9">
	<g
   id="g11"
   style="fill:#f9f9f9">
		<circle
   cx="185.257"
   cy="267.215"
   r="8.3940001"
   id="circle10"
   style="fill:#f9f9f9" />
	</g>
</g>
</svg>
